<?xml version="1.0" standalone="no"?><!DOCTYPE svg PUBLIC "-//W3C//DTD SVG 1.1//EN" "http://www.w3.org/Graphics/SVG/1.1/DTD/svg11.dtd"><svg class="icon" width="16px" height="16.00px" viewBox="0 0 1024 1024" version="1.1" xmlns="http://www.w3.org/2000/svg"><path d="M512 0C228.693 0 0 228.693 0 512s228.693 512 512 512 512-228.693 512-512S795.307 0 512 0m215.04 727.04c-13.653 13.653-37.547 13.653-51.2 0L512 563.2 348.16 727.04c-13.653 13.653-37.547 13.653-51.2 0s-13.653-37.547 0-51.2L460.8 512 296.96 348.16c-13.653-13.653-13.653-37.547 0-51.2s37.547-13.653 51.2 0L512 460.8l163.84-163.84c13.653-13.653 37.547-13.653 51.2 0s13.653 37.547 0 51.2L563.2 512l163.84 163.84c17.067 13.653 17.067 37.547 0 51.2z" fill="#FF464E" /><path d="M756.668 756.668c-15.535 15.534-42.72 15.534-58.254 0L512 570.254 325.586 756.668c-15.534 15.534-42.72 15.534-58.254 0s-15.534-42.72 0-58.254L453.746 512 267.332 325.586c-15.534-15.534-15.534-42.72 0-58.254s42.72-15.534 58.254 0L512 453.746l186.414-186.414c15.534-15.534 42.72-15.534 58.254 0s15.534 42.72 0 58.254L570.254 512l186.414 186.414c19.418 15.534 19.418 42.72 0 58.254z" fill="#FFFFFF" /></svg>